<svg
  xmlns="http://www.w3.org/2000/svg"
  xmlns:xlink="http://www.w3.org/1999/xlink"
  xml:space="preserve"
  version="1.1"
  style="shape-rendering:geometricPrecision;text-rendering:geometricPrecision;image-rendering:optimizeQuality;"
  viewBox="0 0 8200 6718.75"
  x="0px"
  y="0px"
  fill-rule="evenodd"
  clip-rule="evenodd">
  <defs>
    <style type="text/css">

    .fil0 {fill:black;fill-rule:nonzero}

    </style>
  </defs>
  <g>
    <g>
      <path class="fil0" d="M832 2222l397 0 0 505 -484 0 0 -505 87 0zm222 175l-134 0 0 154 134 0 0 -154z"/>
      <polygon class="fil0" points="720,3422 2930,3422 2930,3591 720,3591 "/>
      <path class="fil0" d="M3501 2222l397 0 0 505 -485 0 0 -505 88 0zm221 175l-133 0 0 154 133 0 0 -154z"/>
      <path class="fil0" d="M1722 2222l397 0 0 505 -485 0 0 -505 88 0zm221 175l-134 0 0 154 134 0 0 -154z"/>
      <path class="fil0" d="M2568 2222l397 0 0 505 -485 0 0 -505 88 0zm221 175l-133 0 0 154 133 0 0 -154z"/>
      <path class="fil0" d="M6279 3741c9,-287 245,-516 532,-516 287,0 524,229 532,516l220 0 0 1010 -1504 0 0 -1010 220 0zm176 0l713 0c-9,-191 -166,-340 -357,-340 -191,0 -347,149 -356,340zm933 176l-1153 0 0 659 1153 0 0 -659z"/>
      <path class="fil0" d="M7055 2621l0 -1332 -6886 0 0 2429c0,103 84,188 188,188l5068 0c21,-351 171,-666 404,-899 322,-322 779,-466 1226,-386zm168 41c218,67 413,187 570,344 252,252 407,599 407,982 0,384 -155,731 -407,982 -539,540 -1424,539 -1963,0 -233,-232 -383,-546 -405,-896l-5068 0c-196,0 -357,-160 -357,-356 0,-1121 0,-2241 0,-3361 0,-197 160,-357 357,-357l6510 0c196,0 356,161 356,357 0,768 0,1536 0,2305zm-7054 -2002l6886 0 0 -303c0,-104 -85,-188 -188,-188l-6510 0c-103,0 -188,85 -188,188l0 303zm6886 168l-6886 0 0 293 6886 0 0 -293zm614 2302c-471,-470 -1244,-471 -1716,0 -219,220 -355,523 -355,858 0,335 136,639 356,858 470,471 1244,471 1715,0 220,-219 355,-523 355,-858 0,-335 -135,-638 -355,-858z"/>
    </g>
  </g>
</svg>
